<svg width="741" height="166" viewBox="0 0 741 166" fill="none" xmlns="http://www.w3.org/2000/svg">
<path d="M60.0615 165.678L82.387 60.0847H120.929C128.974 60.0847 135.963 61.3669 141.896 63.9313C147.83 66.4957 152.405 70.1412 155.623 74.8678C158.892 79.5943 160.526 85.2008 160.526 91.6873C160.526 99.8833 158.59 106.973 154.718 112.957C150.897 118.89 145.592 123.466 138.804 126.684C132.066 129.852 124.323 131.436 115.573 131.436H95.0582L87.8175 165.678H60.0615ZM99.8853 108.431H117.157C121.984 108.431 125.705 107.174 128.32 104.66C130.985 102.146 132.318 98.7771 132.318 94.5534C132.318 90.4302 130.91 87.6144 128.094 86.1059C125.328 84.5472 121.582 83.7678 116.856 83.7678H105.165L99.8853 108.431Z" fill="#171717"/>
<path d="M135.62 165.678L197.543 60.0847H230.05L246.417 165.678H215.795L213.306 145.54H178.385L167.448 165.678H135.62ZM189.246 122.46H212.175L207.725 89.8017L189.246 122.46Z" fill="#171717"/>
<path d="M248.273 165.678L270.599 60.0847H298.355L281.384 140.336H322.566L317.211 165.678H248.273Z" fill="#171717"/>
<path d="M311.31 165.678L373.233 60.0847H405.741L422.107 165.678H391.485L388.996 145.54H354.075L343.139 165.678H311.31ZM364.936 122.46H387.865L383.415 89.8017L364.936 122.46Z" fill="#171717"/>
<path d="M433.079 165.678L450.05 85.3517H422.369L427.724 60.0847H510.992L505.637 85.3517H477.956L460.986 165.678H433.079Z" fill="#171717"/>
<path d="M492.658 165.678L514.984 60.0847H542.74L520.414 165.678H492.658Z" fill="#171717"/>
<path d="M534.1 165.678L556.425 60.0847H583.653L611.032 121.857L624.231 60.0847H651.082L628.757 165.678H601.68L574.301 103.001L560.951 165.678H534.1Z" fill="#171717"/>
<path d="M642.422 165.678L664.747 60.0847H741L735.947 84.0695H687.374L683.905 100.738H724.105L719.429 122.762H679.228L675.231 141.392H724.332L719.278 165.678H642.422Z" fill="#171717"/>
<path d="M540.161 12.7767L539.353 26.5819C539.212 28.9878 540.644 31.2083 542.894 32.0718L555.805 37.0266L542 36.2182C539.594 36.0773 537.374 37.5097 536.51 39.7598L531.555 52.6705L532.364 38.8653C532.505 36.4593 531.072 34.2389 528.822 33.3754L515.911 28.4206L529.717 29.229C532.122 29.3699 534.343 27.9375 535.206 25.6874L540.161 12.7767Z" fill="#171717"/>
<path d="M292.348 0C375.651 0 450.817 9.46768 504.067 24.6596C453.685 15.145 391.691 9.53273 324.654 9.53272C155.883 9.53272 19.0665 45.1003 19.0662 88.975C19.0662 101.553 30.3114 113.448 50.3303 124.019C18.563 111.308 0 95.965 0 79.4422C0.000111653 35.5675 130.889 0 292.348 0Z" fill="#171717"/>
</svg>
